<?xml version="1.0" encoding="utf-8"?>
<!-- Generator: Adobe Illustrator 24.3.0, SVG Export Plug-In . SVG Version: 6.00 Build 0)  -->
<svg version="1.1" id="Layer_1" xmlns="http://www.w3.org/2000/svg" xmlns:xlink="http://www.w3.org/1999/xlink" x="0px" y="0px"
	 viewBox="0 0 791.4 241.2" style="enable-background:new 0 0 791.4 241.2;" xml:space="preserve">
<style type="text/css">
	.st0{fill:#003C5A;}
</style>
<path class="st0" d="M452.6,79.1c-7.8,14-9.9,25.9-4.3,30.9c12.5,11.1,19.6,26.8,19.6,43.3c0,32.2-26.6,58.3-59.3,58.3c0,0,0,0,0,0
	c-26.8,0-50.3-17.7-57.3-43.2c-0.6-2.3-1.2-4.7-1.6-7c-0.3-2.6-0.4-5.3-0.4-8c0-32.2,26.6-58.3,59.3-58.3c2.1,0,4.1,0.1,6.2,0.3
	c7.5,0.8,15.1-8.8,20.5-23.8c-8.6-2.7-17.6-4.1-26.7-4.1c-3,0-5.9,0.1-8.8,0.4c0,0,0,0,0,0c-39.5,3.9-71.3,33.6-77.5,71.6
	c0.1,0.4,0.2,0.8,0.2,1.2c-0.1-0.4-0.2-0.8-0.2-1.2c-0.7,4.5-1.1,9.1-1.1,13.8c0,47.4,39.1,85.9,87.4,85.9
	c48.3,0,87.4-38.4,87.4-85.9C496,122.8,479.5,94.5,452.6,79.1z"/>
<path class="st0" d="M219,189.2c0,12.4-12.9,22.4-28.9,22.4s-28.9-10-28.9-22.4v-71.7c0-12.4,12.9-22.4,28.9-22.4s28.9,10,28.9,22.4
	V189.2z M219,11.7v62.7c-8.5-4.4-18.3-6.9-28.9-6.9c-31.4,0-56.9,22.4-56.9,50v71.7c0,27.6,25.5,50,56.9,50s56.9-22.4,56.9-50V11.7
	H219z"/>
<path class="st0" d="M86.8,189.2c0,12.4-12.9,22.4-28.9,22.4S29,201.6,29,189.2c0-10.6,9.8-20.2,22.7-23.6l35-9.2L86.8,189.2z
	 M58,67.4c-20.1,0-37.7,9.1-47.8,22.9l21.5,17.1l3-3.2C39.9,98.7,48.4,95,58,95c16,0,28.9,10,28.9,22.4l-0.1,10.3l-42.2,11.1
	C17.4,146,1,166.1,1,189.2c0,27.6,25.5,50,56.9,50s56.9-22.4,56.9-50l0.1-71.7C114.9,89.8,89.4,67.4,58,67.4"/>
<path class="st0" d="M338.9,34.2c-4-2.3-8.6-3.6-13.6-3.6c-15,0-27.1,11.9-27.1,26.6v13.8h29.5l-12.5,27.5h-17v131.9h-28.1V57.2
	c0-29.9,24.7-54.2,55.2-54.2c10.1,0,19.5,2.6,27.6,7.3l-11.5,25.3L338.9,34.2z"/>
<path class="st0" d="M693.1,85.5c10.1-11.1,24.8-18.1,41.2-18.1c30.5,0,55.2,24.3,55.2,54.2v108.8h-28.1V121.7
	c0-14.7-12.1-26.6-27.1-26.6s-27.1,11.9-27.1,26.6v108.8H679V121.7C679,107,666.9,95,651.9,95c-15,0-27.1,11.9-27.1,26.6v108.8
	h-28.1V121.7c0-29.9,24.7-54.2,55.2-54.2C668.3,67.4,683,74.4,693.1,85.5"/>
<path class="st0" d="M583.1,98.6c-4-2.3-8.6-3.6-13.6-3.6c-15,0-27.1,11.9-27.1,26.6v108.8h-28.1V121.7c0-29.9,24.7-54.2,55.2-54.2
	c10.1,0,19.5,2.6,27.6,7.3L583.1,98.6z"/>
</svg>
