<?xml version="1.0" encoding="UTF-8"?><svg id="_Слой_1" xmlns="http://www.w3.org/2000/svg" viewBox="0 0 171.49 63.13"><defs><style>.cls-1{fill:#1d2e7f;}</style></defs><path class="cls-1" d="M39.39,36.94c-1.64,0-3.04-.57-4.1-1.64-1.56-1.56-1.48-3.28-1.48-6.32s0-4.76,1.48-6.32c1.07-1.07,2.46-1.64,4.1-1.64,2.87,0,5.09,1.72,5.58,4.84h-2.46c-.41-1.56-1.48-2.71-3.2-2.71-.9,0-1.72,.33-2.3,.99-.74,.82-.99,1.72-.99,4.93s.16,4.02,.99,4.93c.57,.57,1.4,.99,2.3,.99,1.72,0,2.79-1.07,3.2-2.71h2.38c-.41,2.96-2.63,4.68-5.5,4.68"/><path class="cls-1" d="M58.51,35.22c-1.07,1.07-2.46,1.64-4.19,1.64s-3.04-.57-4.11-1.64c-1.56-1.56-1.56-3.28-1.56-6.32s0-4.76,1.56-6.32c1.07-1.07,2.46-1.72,4.11-1.72s3.04,.57,4.19,1.72c1.56,1.56,1.48,3.28,1.48,6.32s.08,4.76-1.48,6.32m-1.81-11.16c-.57-.57-1.4-.99-2.38-.99-.9,0-1.81,.41-2.3,.99-.74,.82-.9,1.72-.9,4.93s.16,4.02,.9,4.84c.57,.57,1.4,.99,2.3,.99s1.81-.41,2.38-.99c.74-.82,.9-1.72,.9-4.84s-.16-4.11-.9-4.93"/><polygon class="cls-1" points="73.37 36.78 73.37 29.88 67.05 29.88 67.05 36.78 64.67 36.78 64.67 21.01 67.05 21.01 67.05 27.75 73.37 27.75 73.37 21.01 75.75 21.01 75.75 36.78 73.37 36.78"/><polygon class="cls-1" points="81.01 36.78 81.01 21.01 91.02 21.01 91.02 23.23 83.39 23.23 83.39 27.83 89.87 27.83 89.87 29.88 83.39 29.88 83.39 34.64 91.02 34.64 91.02 36.78 81.01 36.78"/><path class="cls-1" d="M104.07,36.78l-3.28-6.65h-2.96v6.65h-2.38v-15.76h6.07c2.96,0,4.84,1.89,4.84,4.6,0,2.22-1.4,3.69-3.12,4.19l3.61,6.98h-2.79Zm-2.79-13.54h-3.53v4.93h3.53c1.56,0,2.71-.9,2.71-2.46s-1.07-2.46-2.71-2.46"/><polygon class="cls-1" points="110.97 36.78 110.97 21.01 120.98 21.01 120.98 23.23 113.35 23.23 113.35 27.83 119.92 27.83 119.92 29.88 113.35 29.88 113.35 34.64 120.98 34.64 120.98 36.78 110.97 36.78"/><polygon class="cls-1" points="135.02 36.78 127.8 25.69 127.8 36.78 125.42 36.78 125.42 21.01 127.55 21.01 134.86 32.1 134.86 21.01 137.24 21.01 137.24 36.78 135.02 36.78"/><polygon class="cls-1" points="147.75 23.23 147.75 36.78 145.37 36.78 145.37 23.23 141.01 23.23 141.01 21.1 152.1 21.1 152.1 23.23 147.75 23.23"/><path class="cls-1" d="M97.42,50.24c-.99,0-1.72-.25-2.38-.82l.82-.82c.41,.41,.99,.57,1.56,.57,.74,0,1.15-.25,1.15-.82,0-.25-.08-.41-.16-.57-.16-.08-.25-.16-.57-.25l-.74-.08c-.57-.08-.99-.25-1.23-.57-.33-.33-.49-.74-.49-1.23,0-1.15,.82-1.97,2.3-1.97,.9,0,1.56,.25,2.05,.74l-.82,.82c-.41-.41-.9-.41-1.31-.41-.66,0-.99,.41-.99,.82,0,.16,.08,.33,.16,.49,.16,.08,.33,.25,.57,.25l.74,.08c.57,.08,.99,.24,1.23,.49,.33,.33,.49,.82,.49,1.4,.08,1.15-.98,1.89-2.38,1.89"/><path class="cls-1" d="M108.59,49.5c-.49,.49-.99,.74-1.72,.74s-1.31-.25-1.72-.74c-.66-.66-.66-1.48-.66-2.54,0-1.15,0-1.89,.66-2.55,.49-.49,.99-.74,1.72-.74s1.31,.25,1.72,.74c.66,.66,.66,1.48,.66,2.55s0,1.89-.66,2.54m-.9-4.43c-.16-.16-.49-.33-.82-.33s-.66,.16-.82,.33c-.25,.25-.33,.57-.33,1.81s.08,1.56,.33,1.81c.16,.25,.49,.33,.82,.33s.66-.16,.82-.33c.25-.25,.33-.57,.33-1.81s-.08-1.48-.33-1.81"/><polygon class="cls-1" points="114.17 50.16 114.17 43.67 115.48 43.67 115.48 49.01 118.36 49.01 118.36 50.16 114.17 50.16"/><path class="cls-1" d="M125.25,50.24c-1.31,0-2.38-.9-2.38-2.3v-4.27h1.23v4.19c0,.74,.41,1.15,1.15,1.15,.66,0,1.15-.41,1.15-1.15v-4.19h1.23v4.27c0,1.39-1.07,2.3-2.38,2.3"/><polygon class="cls-1" points="135.1 44.82 135.1 50.16 133.87 50.16 133.87 44.82 132.15 44.82 132.15 43.67 136.83 43.67 136.83 44.82 135.1 44.82"/><rect class="cls-1" x="141.43" y="43.67" width="1.23" height="6.49"/><path class="cls-1" d="M151.77,49.5c-.49,.49-.99,.74-1.72,.74s-1.31-.25-1.72-.74c-.66-.66-.66-1.48-.66-2.54,0-1.15,0-1.89,.66-2.55,.49-.49,.99-.74,1.72-.74s1.31,.25,1.72,.74c.66,.66,.66,1.48,.66,2.55s0,1.89-.66,2.54m-.9-4.43c-.16-.16-.49-.33-.82-.33s-.66,.16-.82,.33c-.25,.25-.33,.57-.33,1.81s.08,1.56,.33,1.81c.16,.25,.49,.33,.82,.33s.66-.16,.82-.33c.25-.25,.33-.57,.33-1.81s-.08-1.48-.33-1.81"/><polygon class="cls-1" points="161.21 50.16 158.66 46.22 158.66 50.16 157.35 50.16 157.35 43.67 158.5 43.67 161.05 47.61 161.05 43.67 162.36 43.67 162.36 50.16 161.21 50.16"/><path class="cls-1" d="M169.25,50.24c-.99,0-1.72-.25-2.38-.82l.82-.82c.41,.41,.99,.57,1.56,.57,.74,0,1.15-.25,1.15-.82,0-.25-.08-.41-.25-.57-.16-.08-.25-.16-.57-.25l-.82-.08c-.57-.08-.99-.25-1.23-.57-.33-.33-.49-.74-.49-1.23,0-1.15,.82-1.97,2.3-1.97,.9,0,1.56,.25,2.05,.74l-.82,.82c-.41-.41-.9-.41-1.31-.41-.66,0-.99,.41-.99,.82,0,.16,.08,.33,.16,.49,.16,.08,.33,.25,.57,.25l.74,.08c.57,.08,.99,.24,1.23,.49,.33,.33,.49,.82,.49,1.4,.17,1.15-.9,1.89-2.21,1.89"/><path class="cls-1" d="M20.34,41.05c-2.22-3.53-3.28-7.31-2.96-11.16,.33-5.5,3.45-10.43,8.37-14.61,11.49-2.38,23.48-3.94,35.79-4.68v1.23l4.43-1.72-4.51-1.31v1.15c-11.16,.33-22.16,1.31-32.75,2.96,3.12-2.13,6.81-4.02,10.92-5.66,9.77-2.46,21.1-4.02,33.25-4.6,0,0,7.31-.33,14.45-.57v1.31l5.25-1.81-5.25-1.56V1.23c-6.4-.08-14.28,.16-14.28,.16C33.56,2.22,1.71,15.1,.06,30.87c-1.72,16.91,31.93,31.36,75.2,32.26h2.38c-2.87-.08-5.75-.25-8.54-.49h.25c-.9-.08-1.72-.16-2.63-.16h-.25c-12.89-1.15-24.3-4.68-32.92-9.52,15.02,2.55,31.03,3.86,47.61,3.53,1.4,0,2.87-.08,4.27-.16-19.87,0-38.91-2.13-56.23-6.16-2.63-1.89-4.93-3.94-6.73-6.16,19.54,4.35,41.05,6.49,63.38,5.75,1.4,0,2.87-.08,4.27-.16-24.87,.41-48.76-2.71-69.78-8.54M33.89,8.95c-3.45,1.4-6.57,2.95-9.28,4.68-1.64,.25-3.28,.57-4.84,.9,4.1-2.13,8.86-4.02,14.12-5.58M5.56,36.28c-.57-1.72-.82-3.53-.66-5.25,.49-4.84,3.78-9.28,9.28-13.13,2.3-.57,4.6-1.15,6.89-1.64-4.6,3.86-7.31,8.46-7.72,13.54-.25,3.37,.57,6.73,2.3,9.85-3.45-1.06-6.81-2.13-10.1-3.36m22.82,15.68c5.66,3.37,12.64,6.16,20.52,8.05-11.98-2.3-22.16-5.83-29.72-10.01,3.04,.74,6.07,1.39,9.19,1.97m-4.6-3.12c-3.86-.99-7.55-2.05-11.16-3.2-2.22-1.81-3.94-3.61-5.25-5.58,3.37,.99,6.81,1.97,10.34,2.79,1.64,2.14,3.69,4.11,6.08,5.99"/></svg>