<?xml version="1.0" encoding="utf-8"?>
<!-- Generator: Adobe Illustrator 19.1.0, SVG Export Plug-In . SVG Version: 6.00 Build 0)  -->
<svg version="1.1" xmlns="http://www.w3.org/2000/svg" xmlns:xlink="http://www.w3.org/1999/xlink" x="0px" y="0px"
	 viewBox="0 0 447 619.5" style="enable-background:new 0 0 447 619.5;" xml:space="preserve">
<style type="text/css">
	.st0{display:none;}
	.st1{display:inline;}
	.st2{fill:#FFFFFF;}
	.st3{display:none;fill:#FFFFFF;}
</style>
<g id="Layer_2" class="st0">
	<rect x="-0.8" y="0.8" class="st1" width="447" height="619.5"/>
</g>
<g id="Layer_1">
	<g>
		<path class="st2" d="M150.7,618.4c0.1,0,0.2,0.1,0.3,0.1h0c0.5,0.3,0.9,0.6,1.4,1h252.6c-0.1-8.4-0.7-16.7-2.2-24.9
			c0.5,5.9,1,11.8,1.4,17.7c0.1,2.1,0,4.3,0,6.4c-0.5,0-1,0.1-1.5,0.1c-1.7-9.1-1.4-18.5-2.5-27.7c-1.2-9.5-2-19.1-3.3-28.6
			c-1.3-9.5-2.7-19-4.4-28.5c-1.6-9.4-3.6-18.7-5.6-28.7c-18.9,15.2-40.4,19.5-63.6,19c10.3,31,16.4,62.3,17.8,94.6
			c-1.1-0.6-1.8-1.3-1.9-2.2c-1.3-10.5-2.3-21-3.8-31.4c-2.8-19.9-7.7-39.4-14.2-58.5c-0.4-1.1-1.8-2.3-2.9-2.5
			c-6.3-0.9-12.6-1.6-18.9-2.3c-2.4-0.2-3.9-1.1-4.6-3.5c-1.3-4.8-3.2-9.4-4.2-14.2c-3.6-16.3-3-32.4,5.1-47.4
			c6.3-11.6,15.9-20.3,26.5-27.7c-0.9-6.2-1.8-12.3-2.6-18.5c-0.3-2.2-0.8-4.2-1.9-6c-0.9-1-1.8-2-2.6-3.1c-0.4-0.3-0.8-0.6-1.3-0.9
			c-1.1,0.8-2.1,1.7-3.3,2.3c-12.8,7.4-26,14.2-40.4,17.8c-12.3,3-24.9,4.7-37.3,6.7c-11.7,2-22.9,0.3-33.4-5.8
			c-0.2,0.5-0.5,1-0.6,1.6c-5.3,24.4-10.6,48.7-15.7,73.1c-0.3,1.6,0.6,3.8,1.7,5.2c1.6,2,3.9,3.5,5.7,5.4c0.6,0.6,0.6,1.7,0.8,2.5
			c-0.3,0.2-0.7,0.3-1,0.5c-2.6-2.3-5.3-4.5-7.6-7c-1.9-2.1-4-2.2-6.4-1.8c-6.9,1.2-10.6,6.3-13.9,11.5
			c-15.6,24.5-26,51.2-32.8,79.5c-2.1,8.8,0.5,15.2,7.7,19.7c4.3,2.7,9,4.6,12.7,6.3C150.3,618.2,150.5,618.3,150.7,618.4z"/>
		<path d="M207.4,414.9c-1.7,0.6-3,1.3-4.4,1.7c-3.2,0.7-5.2,2.3-5.7,5.9c-0.1,1-2,2.1-3.3,2.6c-7.8,3.2-16.3,5.2-23.5,9.5
			c-18.3,10.8-24.5,28.1-23.2,48.5c0.2,2.8,2.7,5.5,4.7,9.5c-1,4.1-4.2,8.3-9,11.5c-0.7,0.5-1.6,0.8-2.4,0.8
			c-8.8,0.7-17.6,0.5-26-2.3c-3.4-1.1-6.8-3.3-9.3-5.9c-6.7-7.2-14-13.5-23.5-16.9c-2.3-0.8-4.6-2.7-6-4.8
			c-3.5-5.3-6.8-10.8-9.7-16.4c-3.3-6.3-10.3-7.4-15.1-2c-0.3,0.4-0.7,0.7-1,1.1c-4.9-8.7-16.3-11-22.4,0.7
			c-5.4-3.3-11.8-1.2-13.2,5.5c-1,4.9-0.5,10.4,0.2,15.5c1.7,11.6,8.2,20.9,15.1,30.1c6.8,9.1,15.5,15.8,25.3,21.3
			c15.2,8.6,30.2,17.6,45.7,25.6c9.6,4.9,20.1,8.1,30.2,12.1c0.9,0.4,1.8,0.8,2.9,1.3c-1.5,5.7-2.9,11.2-4.3,16.7
			c-0.5,1.9-0.7,4-1.4,5.8c-2.1,6.3-1,11.8,2.5,17.4c1.5,2.5,1.2,6.2,1.8,9.6c6.8,0,13.7,0,19.2,0c-3.8-1.8-8.9-3.8-13.5-6.7
			c-7.3-4.5-9.8-11-7.7-19.7c6.7-28.3,17.2-54.9,32.8-79.5c3.3-5.2,7.1-10.3,13.9-11.5c2.5-0.4,4.5-0.3,6.4,1.8
			c2.3,2.5,5.1,4.7,7.6,7c0.3-0.2,0.7-0.3,1-0.5c-0.3-0.9-0.3-2-0.8-2.5c-1.8-1.9-4.1-3.3-5.7-5.4c-1.1-1.4-2-3.6-1.7-5.2
			c5.1-24.4,10.4-48.8,15.7-73.1c0.1-0.6,0.4-1.1,0.6-1.6c10.4,6.1,21.6,7.8,33.4,5.8c12.5-2.1,25.1-3.7,37.3-6.7
			c14.4-3.5,27.6-10.3,40.4-17.8c1.2-0.7,2.2-1.6,3.3-2.3c3.8,2.2,5.2,5.8,5.8,9.9c0.8,6.1,1.7,12.3,2.6,18.5
			c-10.7,7.5-20.2,16.1-26.5,27.7c-8.1,15.1-8.8,31.1-5.1,47.4c1.1,4.8,2.9,9.5,4.2,14.2c0.7,2.4,2.2,3.3,4.6,3.5
			c6.3,0.6,12.6,1.3,18.9,2.3c1.1,0.2,2.5,1.4,2.9,2.5c6.5,19.1,11.4,38.5,14.2,58.5c1.5,10.5,2.5,21,3.8,31.4
			c0.1,0.8,0.9,1.6,1.9,2.2c-1.5-32.3-7.5-63.6-17.8-94.6c23.2,0.5,44.7-3.7,63.6-19c2,10,3.9,19.3,5.6,28.7
			c1.6,9.5,3.1,19,4.4,28.5c1.3,9.5,2.1,19.1,3.3,28.6c1.2,9.2,0.8,18.6,2.5,27.7c0.5,0,1-0.1,1.5-0.1c0-2.1,0.1-4.3,0-6.4
			c-2.4-35.6-7-70.8-14.8-105.6c-0.5-2.1-0.4-3.8,1.5-5.2c0.8-0.6,1.4-1.9,1.4-2.8c0-18.5-3.3-35.8-16.6-49.9
			c-9.8-10.3-22.2-15.3-35.8-18.2c-3.8-0.8-7.6-1.4-11.5-1.7c-3-0.2-4-1.6-4.4-4.3c-0.6-5-1.6-9.9-2.1-14.8
			c-0.8-7.7-5.9-11.4-12.3-14.1c-1.1-0.5-2.6-1.8-2.6-2.8c-1.1-20.2-2.1-40.4-3.1-60.6c0-0.5,0.1-1,0.1-1.5c0.2-0.2,0.4-0.4,0.6-0.5
			c14.4-1.2,23-9.2,25.5-23.8c2.1-11.9-2.4-21.9-12.2-27c-0.7-0.3-1.3-0.7-2-1c-5.7-2-5.9-2.1-5.4-8.3c2.1-25,3.7-50.1,6.6-75
			c3.5-30.6,7.8-61.2,12.2-91.7c1.8-13,4.7-25.8,7-38.7c1.3-7-1.8-10.1-8.8-8.1c-5.7,1.6-11.2,3.9-16.8,6
			c-1.2-8.8-4.2-17.4-9.1-25.4c-1.6-2.6-2.8-3.1-5.1-0.8c-5.6,5.4-11.3,10.6-17.3,16.2c-3.8-8.9-7.9-18.5-12.4-29
			c-6.2,8.5-10,18.3-19.8,23.8c-1.7-6.3-3.5-12.2-4.9-18.2c-0.9-4.1-2.2-7.8-6.2-9.7c-1.1-0.5-3.4-0.3-4.1,0.5
			c-2.7,3-5.2,6.4-7.4,9.8c-2.7,4.2-5.1,8.5-8.1,13.8c-1-2.6-1.7-4.1-2.2-5.7c-1.4-4.5-2.7-9.1-4.2-13.6c-1.2-3.7-3.5-6.5-7.3-8.1
			c-2.4-1-3.6-0.4-4.5,2.1c-2.1,5.7-4.4,11.4-6.7,17.1c-0.7,1.7-1.8,3.2-3.1,5.5c-3.3-5.5-6.2-10.4-9.1-15.2c-0.9-1.5-1.8-3.1-3-4.3
			c-4.8-4.8-8-4.4-10.9,1.6c-2.8,5.8-5.1,11.9-7.8,18.4c-2.2-3.7-3.9-7.1-6-10.2c-2-3-4.2-5.9-6.6-8.6c-4.2-4.6-10.4-3.3-12.5,2.5
			c-2.3,6.2-4.3,12.5-6.7,19.3c-2.1-1.8-4-3.3-5.8-4.9c-4.1-3.6-8.2-7.3-12.4-10.9c-0.9-0.7-2.6-1.8-3-1.5c-0.9,0.7-1.6,2.1-1.9,3.4
			c-1.7,6.8-3.3,13.7-5,20.6c-0.5,0.2-1,0.3-1.6,0.5c-2.3-2.6-4.3-5.4-7-7.6c-2.9-2.4-6.2-4.6-9.7-6.1c-1.9-0.8-5.1-0.8-6.5,0.3
			c-1.2,1-0.8,4.1-1.1,6.2c0,0.1,0.1,0.2,0.1,0.4c4.1,10.5,3.9,21.6,3.9,32.5c0.1,35.2-1.5,70.4-5.3,105.5c-0.2,2.3-1.8,4.6-3.3,6.5
			c-5.4,6.9-6.3,14.3-2.8,22.1c1,2.3-0.2,3.2-1.2,4.5c-12.2,14.8-13.8,31.4-7.2,48.9c3.2,8.4,9.6,14.5,17,19.5
			c2.5,1.7,3.2,3.2,2.6,6.4c-3.3,16.8-6.3,33.6-9,50.5c-1.3,8,1.8,14.7,8.3,19.7c8,6.2,17.5,8.4,27.1,10.1
			c17.1,3.1,34.3,3.1,51.5,2.5c5.6-0.2,11.2-0.6,16.8-0.7c1.5,0,3,0.7,4.4,1.5c3.5,1.8,6.9,4,10.5,5.7c3.8,1.8,5,3.7,3.8,7.6
			c-0.7,2.1-1.5,4.4-3,6c-4.6,5.1-4,11.3,3.9,15c2.8,1.3,6.3,1,9.5,1.2C202.9,410.9,206,410.8,207.4,414.9z M208.1,394.8
			c4.4,0,8.6,0.6,12.5-0.1c8.6-1.7,16.9-4.4,25.5-6c9.9-1.8,17.3-11.4,18.5-21.9c0.8-7-3.9-11.9-11-12.1c-6.5-0.2-12,2.5-17.8,4.8
			c-7.3,2.9-14.6,5.8-22.2,7.2c-9.5,1.8-19.3,2-29,3.1c-25.5,3-51.1,3.6-76.6,0.5c-9.5-1.1-19-3.2-27.5-8.2
			c-8.1-4.7-12.2-11.5-10.9-21.1c0.4-2.6,0.4-5.2,0.9-7.8c2.7-14.1,5.4-28.2,8.3-42.2c0.2-0.9,1.6-2.2,2.5-2.2
			c2.8,0,5.6,0.5,8.6,0.8c-0.4,1-0.8,2-1.2,3.1c-1.6,5.3-1.7,10.4,1.1,15.5c4.6,8.3,12,11.9,20.9,12.3c6.4,0.3,12.9-0.8,19.4-1.3
			c0.6-0.1,1.2-0.8,1.8-1.3c-0.1-0.4-0.2-0.8-0.3-1.2c-3.4,0.3-6.8,0.4-10.1,0.8c-8.3,1-16.4,1.4-23.8-3.7c-5.8-4-8.1-9.6-7.5-16.4
			c0.6-7.4,4.9-11.4,12-12.7c13.5-2.3,27-4.6,40-6.8c9.9,10.8,20.6,19.5,35,22.4c16.7,3.4,32.2,0.3,45.5-10.4
			c14.7-11.8,20.9-27.2,17.8-46.1c-2.3-13.9-8.7-25.3-19.7-34.2c-0.9-0.7-2.1-0.9-3.2-1.4c-0.1,1.4,0.2,2.1,0.7,2.5
			c14.5,11.4,20.9,26.5,20.4,44.8c-0.1,2.8-1,3.9-3.6,4.6c-30.1,8.2-60.1,9.2-90-0.8c-9.4-3.1-7.9-1.3-8.2-11.4
			c-0.5-13.1,3.4-24.4,14.3-32.5c2.8-2.1,5.8-4,8.6-6c0.9-0.7,1.6-1.6,2.4-2.5c-0.3-0.3-0.6-0.6-0.9-0.9
			c-7.5,3.5-13.8,8.7-19.5,14.8c-6.5-11.4-12-16.6-16.8-15c1.4,1,2.4,1.8,3.5,2.4c5.2,3.1,8.5,7.6,10.3,13.3
			c0.4,1.2,0.6,2.8,0.1,3.9c-3.6,7.4-4.6,15.3-4.5,23.3c0,2.6-0.6,3.7-3.2,4.4c-15.1,4.1-30.5,5.1-46.1,3.8
			c-10.2-0.8-20.2-3-29.9-6.9c-1.4-25,12.1-39.3,33.9-48c-9.2-0.4-15.2,5.3-21.5,10.2c-4-4.6-3.1-15.4,1-19.5
			c4.2-4.2,5-9.3,5.3-14.7c0.1-1.4,0.1-2.7,0.3-4.1c3.2-32.2,4.4-64.5,4.3-96.9c0-10.6,0.1-21.2-3.6-31.4c-0.5-1.5-0.1-3.4-0.1-5.4
			c11.1,0.5,15.9,10.1,24,16.1c2.6-8.8,5.1-16.8,7.5-24.9c6.7,5.8,13.6,11.8,21,18.2c2.8-8.2,5.2-15.3,7.6-22.4
			c1.7-5,5.9-5.9,9.2-1.7c3,3.8,5.6,7.9,8.3,12c1.9,2.8,3.5,5.8,5.7,9.5c1.1-2,1.8-3,2.3-4.1c2.5-5.9,4.7-11.8,7.3-17.6
			c2.1-4.6,4.4-4.8,7.8-0.9c0.9,1,1.5,2.3,2.2,3.4c3,4.9,6,9.8,9,14.7c1.6,2.6,3,2.4,4.3-0.1c2-3.8,4.2-7.7,5.9-11.6
			c1.7-3.7,2.9-7.6,4.4-11.5c4.2,1.3,5.9,4.2,7,7.6c1.4,4.3,2.6,8.6,3.9,12.9c0.7,2,1.6,3.9,2.5,5.8c1,2.1,2.3,2.1,3.6,0.1
			c3-4.7,5.9-9.5,8.9-14.2c1.6-2.5,3.4-4.9,5.1-7.4c1.7-2.4,3.7-2,5.1,0.1c1.2,1.7,1.9,3.7,2.5,5.7c2.2,7.3,4.2,14.7,6.5,22.4
			c9.8-5.7,14.9-14.1,20.1-22.8c4.6,9.9,8.9,19.2,13.3,28.7c6.7-7.1,12.8-13.5,19.2-20.3c6.4,9.5,9.2,19.5,10.5,30.4
			c1.6-1,2.6-1.6,3.7-2.3c5.5-3.4,11.2-6,17.8-6.3c3.5-0.2,4.4,1.3,3.7,4.5c-0.9,4-1.9,8-2.5,12.1c-4.5,29-9.4,57.9-13.1,87
			c-3.3,25.6-5.4,51.4-7.9,77.1c-1.1,11.4-1.7,22.9-2.7,34.3c-0.1,1.2-1.1,3-2.1,3.3c-5.5,1.4-9.4,5-13.1,8.9
			c-0.7,0.8-1.1,1.9-1.7,2.8c0.3,0.3,0.6,0.6,1,0.8c0.9-0.7,1.8-1.4,2.7-2.2c3.7-3.7,7.4-7.3,13-8.1c8.5-1.1,21.5,8.1,20.7,22.1
			c-0.5,7.9-3.4,14.9-8.7,20.6c-2.4,2.6-6.3,4.8-9.8,5.3c-4.7,0.7-9.7-0.3-14.4-1c-2.5-0.4-4.9-1.7-7.9-2.8c0.5,1.3,0.6,2.3,1,2.5
			c4.2,1.7,8.4,3.3,13,5c0.5,9.9,1,20.5,1.6,31.1c0.6,12.3,1.2,24.7,2,37c0.2,2.9-0.4,4.4-3.1,5.7c-17.6,8.6-35.5,15.9-55.2,18
			c-9.2,1-18.4,2.3-27.5,2.2c-8.1,0-8.1-0.8-9.6-8.6c0-0.2-0.1-0.5-0.2-0.7c-1.3-6.2-4.1-8.5-10.4-8.3c-2.2,0-4.5,0.3-6.7-0.1
			c-6.5-1.2-8.4-6.6-4.9-12c1.6-2.4,2.9-5.3,3.6-8.1c1.3-4.9-0.4-7.4-5.1-9.2c-3.2-1.3-6.3-2.9-9.5-4.4c5.5-1.8,10.6-3,15.8-3.4
			c2.9-0.2,6.3,0.3,8.8,1.6C209.6,376.7,211.7,384.8,208.1,394.8z M157,474.8c2.3,0,4.8-0.1,7.3,0c6.4,0.2,12.7,1.1,18.1,4.9
			c1,0.7,2,2.4,1.8,3.4c-0.7,4.7-1.7,9.3-2.9,13.9c-0.2,0.9-1.6,2.1-2.4,2.1c-6.8,0.2-11.7,4.1-15,9.3c-5.9,9.3-11.7,18.8-16.7,28.7
			c-4.9,9.6-8.6,19.9-13,30.2c-4.2-1.8-8.5-3.7-12.8-5.5c-9.9-4.1-20.1-7.5-29.6-12.3c-11-5.5-21.5-12.1-32-18.5
			c-8.9-5.4-17.9-10.6-24.8-19c-8.3-10.2-16.1-20.4-18.2-33.8c-0.7-4.2-0.9-8.7-0.4-12.9c0.4-3.6,4.6-6.7,7.2-5.9
			c3.4,1.1,3,4.3,3.5,7.1c1,5.9,2.3,11.7,3.6,17.4c0.2,0.9,1.4,1.6,2.1,2.4c0.3-0.2,0.5-0.5,0.8-0.7c-1.1-3.6-2.5-7.2-3.3-11
			c-1.1-5.6-2.3-11.4,0.6-16.8c2.5-4.6,6.2-6.1,10.5-4.5c5.1,1.9,6.8,5.6,6.4,10.7c-0.4,5.4,0.2,10.9,0.6,16.4
			c0.1,1,1.4,1.9,2.1,2.9c0.3-0.3,0.7-0.5,1-0.8c-0.3-1.3-0.8-2.6-1-3.9c-1-6.9-2.2-13.9,2.3-20.2c3-4.3,8.3-4,10.6,0.5
			c2,3.9,3.9,7.8,6.3,11.5c3.2,5,6.3,10.2,12.5,12.3c7.8,2.6,14.1,7.5,19.2,13.7c4.7,5.7,10.5,8.6,17.6,9.6c2.7,0.4,5.4,1.2,8.1,1.3
			c5.2,0,11,1,15.5-0.9c5.8-2.3,10.4-7.4,11.7-14.2C155.4,486.7,156.1,481,157,474.8z M328.2,522.1c-3.2,0-6.5,0.1-9.7,0
			c-3.2-0.1-6.5-0.4-9.7-0.8c-10.4-1.1-10.4-1.2-13.3-11c-0.1-0.5-0.2-1-0.4-1.4c-2.9-10.5-4.1-21.2-2.3-32
			c3.2-19,14.4-32.6,29.6-43.4c1.4-1,3.5-1.8,5.1-1.5c9.1,1.8,18.4,3.1,27.1,6.2c14.3,5.1,24.4,15.2,30.5,29.4
			c3.9,9.2,4.9,18.9,5.5,28.7c0.1,1.8-1,4.2-2.3,5.4c-4.8,3.9-9.7,7.8-15.1,10.8C359.3,520.1,344.1,522.7,328.2,522.1z M165.9,294.1
			c-18.5-11-26.2-20.6-27.4-34.4c32.7,12.6,65.8,11.9,99.5,2.4c-0.3,1.5-0.5,2.4-0.8,3.3c-6.5,21-29.6,36.1-51.7,33.8
			c-2.2-0.2-2.8-1.1-3-3.3c-0.4-4.9-2.7-6.7-7.7-6.8C171,289.1,167.7,289.9,165.9,294.1z M89,286.4c-1.6-2.6-2.5-6-4.5-6.8
			c-3.8-1.6-7.8-0.4-10.1,4.1c-10-8.1-18.3-16.7-19.1-30.7c26.6,9.1,52.9,9.4,78.9,2c2.1,7.1,4.1,13.9,6.3,21.2
			c-8.5,1.2-17.4,2.1-26.2,3.8C105.5,281.8,96.9,284.4,89,286.4z M149.4,476.6c0.3-33,28.2-46.8,46.7-48.9
			c-3.6,17-7.3,33.7-10.8,50.3c-3.4-1.5-6.6-3.6-10-4.1C166.6,472.5,157.5,469.5,149.4,476.6z M260.5,371.9
			c-2.4,6.2-5.6,11.1-11.3,12.9c-9.1,3-18.5,5-27.8,7.5c-0.2-0.4-0.3-0.8-0.5-1.1c4.5-3.4,7-9.8,13.9-9.4c0.3,1.4,0.5,2.4,0.7,3.3
			c0.8-0.6,1.7-1,2.2-1.7C243.2,375.4,250.9,372.5,260.5,371.9z M152.9,487.8c-5.2-4.5-3.7-8.2,1.2-10.4
			C153.6,480.8,153.3,484.1,152.9,487.8z M208.7,423.3c-0.3,0.2-0.6,0.4-0.9,0.6c-1.9-1.2-3.8-2.5-6.1-4c2.4-1,4-1.6,6-2.4
			C208.1,419.6,208.4,421.5,208.7,423.3z"/>
		<path d="M61.5,434.5c1.1,1.6,2.1,3.3,3.3,4.8c0.8,0.9,1.8,1.8,2.9,2.4c3.7,2.1,5.7,7.5,11.4,5.5c4.1-1.4,8.2-2.6,12.3-4
			c0.7-0.2,1.2-0.9,1.9-1.1c12.9-3.8,12.1-15.5,14.5-25.3c0.2-0.8-0.8-2-1.5-2.7c-5.1-5-10.3-9.9-15.4-14.8c-0.6-0.6-1.3-1.5-2-1.5
			c-5.6-0.1-11.3-0.3-16.8,0.1c-1.2,0.1-2.6,2.2-3.4,3.6c-3.3,6-7.9,8-14.9,7.5c-11.7-0.7-23.5-0.8-35.2,0.1
			c-4.4,0.3-8.7,3.7-12.8,6.1c-1.5,0.9-0.2,8.4,1.4,9.6c3.3,2.5,6.5,5.1,9.9,7.4c1.2,0.8,3,1.2,4.5,1.2c12.1,0.1,24.2,0.1,36.4,0.1
			c1.4,0,2.7,0,4.1,0C61.8,433.8,61.6,434.2,61.5,434.5z M89,400.5c5.3,5.1,10.6,10,15.7,15c0.4,0.4,0.6,1.2,0.5,1.7
			c-1.1,5.5-2.3,11-3.5,16.4c-0.1,0.5-0.7,1-1.2,1.3c-4.2,2.6-8.4,5.1-12.5,7.6c-10-9.2-10-9.2-10-22.1c0-1.6-0.2-3.3,0.1-4.9
			c0.2-1.3,0.5-2.7,1.3-3.7C82.4,408.1,85.6,404.5,89,400.5z M20.8,431.2c0.3,0-0.5,0.3-0.9,0c-4-2.8-8.2-5.4-11.6-8.8
			c-1-1-0.6-5.2,0.6-6.4c5.3-5.1,11.9-5.8,18.3-4.6C25.1,417.7,23,424.1,20.8,431.2z M64.7,435.5c0-8.4,0-16.3,0-24.4
			c3.8,0.7,7.3,1.4,10.9,2.2c0,6.6,0,12.9,0,19.6C72,433.6,68.5,434.5,64.7,435.5z M51.2,431.1c-1.4-7.9,5.1-19.5,11-19.8
			c0,3.2,0,6.5,0,9.7c0,3.3,0,6.7,0,10.1C58.4,431.1,54.9,431.1,51.2,431.1z M86,399.8c-7.9,11.2-11.6,12.7-19.5,8.4
			c1.8-2.4,3.5-4.8,5.4-7.1c0.6-0.7,1.6-1.2,2.4-1.3C78,399.7,81.7,399.8,86,399.8z M39.2,431c-1.4,0-3.4,0-5.5,0
			c-0.6-6.7,1.3-12.4,5.2-17.5c1.9-2.4,4.1-3.2,6.2-2.5C43.1,417.7,41.2,424.1,39.2,431z M56.5,411.5c-5.1,5.7-9,11.8-8.2,19.5
			c-2.2,0-3.8,0-6.4,0c1.4-5.2,2.2-10.2,4.1-14.7C48.1,411.1,50.1,410.5,56.5,411.5z M24.9,431.1C24,425,26.3,420,28.8,415
			c1.8-3.8,4.5-4.8,8.6-3.6c-4.7,5.8-6.9,12.3-6.6,19.7C28.8,431.1,27.1,431.1,24.9,431.1z M66.9,437.4c2.9-0.8,5.7-1.6,8.6-2.2
			c0.7-0.2,1.7,0.1,2.3,0.5c2.6,2.1,5,4.4,7.7,6.8C77.4,446.4,74.3,445.4,66.9,437.4z"/>
		<path class="st2" d="M208.1,394.8c3.6-10,1.5-18.1-6.1-22.3c-2.5-1.4-5.9-1.8-8.8-1.6c-5.2,0.4-10.3,1.6-15.8,3.4
			c3.2,1.5,6.2,3.1,9.5,4.4c4.7,1.8,6.4,4.4,5.1,9.2c-0.8,2.8-2,5.6-3.6,8.1c-3.5,5.4-1.6,10.8,4.9,12c2.2,0.4,4.5,0.2,6.7,0.1
			c6.3-0.1,9.1,2.1,10.4,8.3c0,0.2,0.1,0.5,0.2,0.7c1.5,7.9,1.5,8.6,9.6,8.6c9.2,0.1,18.4-1.3,27.5-2.2c19.7-2,37.6-9.4,55.2-18
			c2.7-1.3,3.3-2.8,3.1-5.7c-0.9-12.3-1.4-24.7-2-37c-0.5-10.6-1.1-21.2-1.6-31.1c-4.6-1.8-8.8-3.3-13-5c-0.4-0.2-0.5-1.2-1-2.5
			c3.1,1.1,5.4,2.5,7.9,2.8c4.8,0.7,9.8,1.7,14.4,1c3.5-0.5,7.4-2.7,9.8-5.3c5.3-5.7,8.3-12.7,8.7-20.6c0.8-14-12.3-23.2-20.7-22.1
			c-5.7,0.8-9.3,4.4-13,8.1c-0.8,0.8-1.8,1.5-2.7,2.2c-0.3-0.3-0.6-0.6-1-0.8c0.6-0.9,1-2.1,1.7-2.8c3.7-3.9,7.7-7.5,13.1-8.9
			c0.9-0.2,2-2.1,2.1-3.3c1-11.4,1.6-22.9,2.7-34.3c2.5-25.7,4.6-51.5,7.9-77.1c3.8-29.1,8.7-58,13.1-87c0.6-4.1,1.6-8.1,2.5-12.1
			c0.7-3.2-0.1-4.7-3.7-4.5c-6.6,0.3-12.3,2.9-17.8,6.3c-1,0.6-2.1,1.3-3.7,2.3c-1.3-10.9-4.1-20.8-10.5-30.4
			c-6.4,6.8-12.5,13.2-19.2,20.3c-4.4-9.5-8.7-18.8-13.3-28.7c-5.2,8.6-10.3,17.1-20.1,22.8c-2.2-7.8-4.3-15.1-6.5-22.4
			c-0.6-2-1.4-4-2.5-5.7c-1.4-2.1-3.4-2.5-5.1-0.1c-1.7,2.4-3.5,4.9-5.1,7.4c-3,4.7-6,9.4-8.9,14.2c-1.2,2-2.5,2-3.6-0.1
			c-1-1.9-1.8-3.8-2.5-5.8c-1.4-4.3-2.6-8.6-3.9-12.9c-1.1-3.4-2.9-6.3-7-7.6c-1.5,3.9-2.7,7.8-4.4,11.5c-1.8,4-3.9,7.8-5.9,11.6
			c-1.3,2.5-2.7,2.7-4.3,0.1c-2.9-4.9-6-9.8-9-14.7c-0.7-1.2-1.3-2.4-2.2-3.4c-3.4-3.9-5.8-3.7-7.8,0.9c-2.6,5.8-4.9,11.7-7.3,17.6
			c-0.5,1.1-1.2,2.1-2.3,4.1c-2.2-3.7-3.8-6.7-5.7-9.5c-2.7-4.1-5.3-8.2-8.3-12c-3.3-4.1-7.5-3.2-9.2,1.7
			c-2.4,7.1-4.8,14.1-7.6,22.4c-7.4-6.4-14.3-12.4-21-18.2c-2.5,8.1-4.9,16.2-7.5,24.9c-8.1-6-12.9-15.6-24-16.1
			c0,2-0.5,3.9,0.1,5.4c3.7,10.2,3.6,20.9,3.6,31.4c0.1,32.4-1.1,64.7-4.3,96.9c-0.1,1.4-0.2,2.7-0.3,4.1
			c-0.3,5.4-1.1,10.5-5.3,14.7c-4.1,4.1-5,14.9-1,19.5c6.3-4.9,12.3-10.6,21.5-10.2c-21.8,8.7-35.3,23-33.9,48
			c9.7,3.9,19.7,6.1,29.9,6.9c15.5,1.3,30.9,0.3,46.1-3.8c2.6-0.7,3.3-1.8,3.2-4.4c-0.1-8.1,0.9-15.9,4.5-23.3
			c0.5-1,0.3-2.7-0.1-3.9c-1.8-5.6-5.1-10.2-10.3-13.3c-1.1-0.6-2.1-1.5-3.5-2.4c4.8-1.5,10.3,3.7,16.8,15
			c5.7-6.1,12-11.3,19.5-14.8c0.3,0.3,0.6,0.6,0.9,0.9c-0.8,0.8-1.5,1.8-2.4,2.5c-2.8,2.1-5.8,4-8.6,6c-11,8.1-14.8,19.3-14.3,32.5
			c0.4,10-1.2,8.2,8.2,11.4c29.9,10,59.9,9,90,0.8c2.6-0.7,3.5-1.8,3.6-4.6c0.5-18.3-5.9-33.4-20.4-44.8c-0.5-0.4-0.8-1.1-0.7-2.5
			c1.1,0.5,2.4,0.7,3.2,1.4c11,8.8,17.4,20.3,19.7,34.2c3.1,18.9-3.1,34.3-17.8,46.1c-13.3,10.7-28.8,13.8-45.5,10.4
			c-14.4-2.9-25.1-11.6-35-22.4c-13.1,2.2-26.6,4.5-40,6.8c-7.1,1.2-11.4,5.3-12,12.7c-0.6,6.9,1.7,12.4,7.5,16.4
			c7.4,5.1,15.5,4.7,23.8,3.7c3.4-0.4,6.8-0.5,10.1-0.8c0.1,0.4,0.2,0.8,0.3,1.2c-0.6,0.4-1.2,1.2-1.8,1.3c-6.5,0.6-13,1.6-19.4,1.3
			c-8.9-0.4-16.4-3.9-20.9-12.3c-2.8-5.1-2.8-10.2-1.1-15.5c0.3-1.1,0.8-2.1,1.2-3.1c-3-0.3-5.8-0.8-8.6-0.8c-0.9,0-2.3,1.3-2.5,2.2
			c-2.9,14.1-5.6,28.1-8.3,42.2c-0.5,2.6-0.6,5.2-0.9,7.8c-1.3,9.6,2.8,16.4,10.9,21.1c8.5,4.9,17.9,7,27.5,8.2
			c25.5,3.1,51.1,2.5,76.6-0.5c9.6-1.1,19.5-1.3,29-3.1c7.6-1.4,15-4.4,22.2-7.2c5.8-2.3,11.3-5,17.8-4.8c7.1,0.2,11.8,5.1,11,12.1
			c-1.2,10.5-8.6,20.1-18.5,21.9c-8.6,1.6-16.9,4.3-25.5,6C216.7,395.5,212.5,394.8,208.1,394.8z M303.6,77.4
			c-6,4.3-10.6,9.4-16.3,13.1c-0.4-0.5-0.8-1-1.2-1.5c5.6-4.8,11.2-9.7,16.9-14.3c0.4-0.3,2.3,0.5,2.8,1.2c1.2,1.7,1.9,3.7,3,5.9
			c5.8-5,10.1-11.6,17.6-13.3c-5.5,5.6-11.2,10.8-17.1,15.9c-0.4,0.3-2.3-0.3-2.8-1C305.4,81.7,304.7,79.6,303.6,77.4z M118.7,82.7
			c-1.5-3.6-2.6-6.3-3.9-8.9c-4.2-8.6-6.3-8.9-12.9-2.3c-0.3,0.3-0.5,0.5-0.8,0.8c-3.3,3.2-5.2,3.1-7.8-0.8
			c-2.6-3.8-4.9-7.8-7.3-11.7c-0.4-0.6-0.3-1.5-0.4-2.3c0.8,0.3,1.9,0.4,2.3,1c1.7,2.5,3.1,5.1,4.7,7.6c5.2,8,4.1,7.1,10.3,1.3
			c1.6-1.5,4.1-2.7,6.2-2.7C113.8,64.6,120.8,76.8,118.7,82.7z M312.1,300.8c0,2.9,0.1,5.3-0.1,7.7c-0.1,0.8-1,1.4-1.5,2.1
			c-0.3-0.8-0.7-1.6-0.8-2.4c-0.2-2-0.2-4-0.3-7.1c-2.6,2.1-4.2,3.4-5.9,4.6c-0.6,0.4-1.5,0.4-2.2,0.5c0.1-0.7,0-1.7,0.5-2.2
			c3.8-4.1,8.4-6.5,14.1-6.2c0.7,0,1.4,0.5,2,0.8c0,0.3,0,0.6,0,1C315.8,300,313.7,300.4,312.1,300.8z"/>
		<path class="st2" d="M157,474.8c-0.9,6.2-1.5,11.9-2.5,17.5c-1.2,6.8-5.8,11.9-11.7,14.2c-4.6,1.8-10.3,0.9-15.5,0.9
			c-2.7,0-5.4-0.9-8.1-1.3c-7.1-1-12.9-3.9-17.6-9.6c-5.1-6.3-11.4-11.1-19.2-13.7c-6.2-2.1-9.3-7.3-12.5-12.3
			c-2.3-3.7-4.3-7.6-6.3-11.5c-2.3-4.5-7.6-4.8-10.6-0.5c-4.4,6.3-3.3,13.3-2.3,20.2c0.2,1.3,0.6,2.6,1,3.9c-0.3,0.3-0.7,0.5-1,0.8
			c-0.7-1-2.1-1.9-2.1-2.9c-0.4-5.4-1-10.9-0.6-16.4c0.4-5.2-1.3-8.8-6.4-10.7c-4.3-1.6-8,0-10.5,4.5c-3,5.5-1.8,11.2-0.6,16.8
			c0.8,3.7,2.2,7.3,3.3,11c-0.3,0.2-0.5,0.5-0.8,0.7c-0.7-0.8-1.9-1.5-2.1-2.4c-1.4-5.8-2.7-11.6-3.6-17.4c-0.5-2.8,0-6-3.5-7.1
			c-2.6-0.8-6.7,2.2-7.2,5.9c-0.5,4.2-0.2,8.7,0.4,12.9c2.1,13.4,9.9,23.6,18.2,33.8c6.9,8.4,15.8,13.6,24.8,19
			c10.6,6.4,21,13,32,18.5c9.5,4.8,19.7,8.2,29.6,12.3c4.4,1.8,8.7,3.7,12.8,5.5c4.4-10.3,8.1-20.5,13-30.2
			c5-9.9,10.7-19.4,16.7-28.7c3.3-5.3,8.2-9.1,15-9.3c0.9,0,2.2-1.3,2.4-2.1c1.2-4.6,2.2-9.2,2.9-13.9c0.2-1.1-0.8-2.7-1.8-3.4
			c-5.4-3.8-11.7-4.7-18.1-4.9C161.8,474.7,159.3,474.8,157,474.8z"/>
		<path class="st2" d="M328.2,522.1c15.8,0.6,31-2,45-9.7c5.4-3,10.3-6.9,15.1-10.8c1.4-1.1,2.4-3.6,2.3-5.4
			c-0.6-9.8-1.6-19.5-5.5-28.7c-6-14.2-16.2-24.2-30.5-29.4c-8.7-3.1-18-4.4-27.1-6.2c-1.6-0.3-3.7,0.5-5.1,1.5
			c-15.3,10.7-26.5,24.4-29.6,43.4c-1.8,10.8-0.6,21.5,2.3,32c0.1,0.5,0.2,1,0.4,1.4c3,9.8,3,9.8,13.3,11c3.2,0.4,6.4,0.6,9.7,0.8
			C321.7,522.2,325,522.1,328.2,522.1z"/>
		<path class="st2" d="M165.9,294.1c1.8-4.1,5.2-5,9-5c4.9,0.1,7.2,1.9,7.7,6.8c0.2,2.1,0.7,3,3,3.3c22.1,2.3,45.2-12.8,51.7-33.8
			c0.3-0.9,0.4-1.9,0.8-3.3c-33.7,9.6-66.8,10.2-99.5-2.4C139.7,273.5,147.3,283.1,165.9,294.1z"/>
		<path class="st2" d="M89,286.4c7.8-2,16.5-4.6,25.3-6.3c8.8-1.7,17.7-2.6,26.2-3.8c-2.2-7.3-4.2-14.2-6.3-21.2
			c-26.1,7.3-52.3,7-78.9-2c0.9,13.9,9.2,22.5,19.1,30.7c2.3-4.5,6.2-5.7,10.1-4.1C86.5,280.4,87.4,283.8,89,286.4z"/>
		<path class="st2" d="M149.4,476.6c8.1-7.1,17.2-4.2,25.9-2.8c3.4,0.5,6.6,2.7,10,4.1c3.6-16.6,7.2-33.3,10.8-50.3
			C177.6,429.9,149.7,443.7,149.4,476.6z"/>
		<path class="st2" d="M260.5,371.9c-9.7,0.6-17.4,3.5-22.6,11.4c-0.5,0.7-1.5,1.1-2.2,1.7c-0.2-1-0.4-1.9-0.7-3.3
			c-6.9-0.3-9.4,6-13.9,9.4c0.2,0.4,0.3,0.8,0.5,1.1c9.3-2.5,18.7-4.5,27.8-7.5C254.9,383,258.2,378.1,260.5,371.9z"/>
		<path class="st2" d="M152.9,487.8c0.4-3.7,0.8-7,1.2-10.4C149.1,479.6,147.6,483.3,152.9,487.8z"/>
		<path class="st2" d="M208.7,423.3c-0.3-1.8-0.6-3.7-1-5.8c-2,0.8-3.6,1.4-6,2.4c2.3,1.5,4.2,2.8,6.1,4
			C208.1,423.7,208.4,423.5,208.7,423.3z"/>
		<path class="st2" d="M89,400.5c-3.4,4-6.7,7.6-9.7,11.4c-0.8,1-1.1,2.4-1.3,3.7c-0.2,1.6-0.1,3.2-0.1,4.9c0,13,0,13,10,22.1
			c4.1-2.5,8.3-5,12.5-7.6c0.5-0.3,1.1-0.8,1.2-1.3c1.2-5.5,2.4-11,3.5-16.4c0.1-0.5-0.1-1.3-0.5-1.7
			C99.6,410.5,94.4,405.6,89,400.5z"/>
		<path class="st2" d="M20.8,431.2c2.3-7,4.3-13.5,6.4-19.9c-6.3-1.1-13-0.5-18.3,4.6c-1.2,1.2-1.6,5.4-0.6,6.4
			c3.4,3.4,7.6,6,11.6,8.8C20.2,431.4,21,431.2,20.8,431.2z"/>
		<path class="st2" d="M64.7,435.5c3.8-0.9,7.3-1.8,10.9-2.7c0-6.6,0-13,0-19.6c-3.6-0.7-7.2-1.4-10.9-2.2
			C64.7,419.2,64.7,427.1,64.7,435.5z"/>
		<path class="st2" d="M51.2,431.1c3.7,0,7.2,0,11,0c0-3.5,0-6.8,0-10.1c0-3.2,0-6.5,0-9.7C56.3,411.6,49.8,423.2,51.2,431.1z"/>
		<path class="st2" d="M86,399.8c-4.3,0-8-0.1-11.7,0.1c-0.8,0-1.9,0.6-2.4,1.3c-1.9,2.3-3.6,4.7-5.4,7.1
			C74.4,412.5,78.1,410.9,86,399.8z"/>
		<path class="st2" d="M39.2,431c2-6.9,3.9-13.3,5.9-20c-2.1-0.7-4.3,0.1-6.2,2.5c-4,5.1-5.9,10.8-5.2,17.5
			C35.8,431,37.8,431,39.2,431z"/>
		<path class="st3" d="M56.5,411.5c-6.5-1-8.5-0.4-10.6,4.8c-1.8,4.5-2.7,9.5-4.1,14.7c2.6,0,4.3,0,6.4,0
			C47.5,423.2,51.5,417.2,56.5,411.5z"/>
		<path class="st3" d="M24.9,431.1c2.2,0,3.9,0,5.9,0c-0.2-7.4,1.9-13.9,6.6-19.7c-4.1-1.2-6.8-0.2-8.6,3.6
			C26.3,420,24,425,24.9,431.1z"/>
		<path class="st3" d="M66.9,437.4c7.3,7.9,10.5,8.9,18.6,5.2c-2.7-2.4-5.2-4.7-7.7-6.8c-0.6-0.5-1.6-0.7-2.3-0.5
			C72.7,435.9,69.9,436.7,66.9,437.4z"/>
		<path d="M303.6,77.4c1,2.2,1.8,4.2,2.9,6c0.5,0.7,2.4,1.4,2.8,1c5.8-5.1,11.5-10.4,17.1-15.9c-7.6,1.7-11.9,8.3-17.6,13.3
			c-1.1-2.2-1.8-4.2-3-5.9c-0.5-0.7-2.4-1.5-2.8-1.2c-5.7,4.7-11.3,9.5-16.9,14.3c0.4,0.5,0.8,1,1.2,1.5
			C293,86.8,297.7,81.7,303.6,77.4z"/>
		<path d="M118.7,82.7c2.1-5.9-4.9-18.1-9.6-18c-2.1,0-4.6,1.3-6.2,2.7c-6.2,5.8-5.1,6.7-10.3-1.3c-1.6-2.5-3-5.2-4.7-7.6
			c-0.4-0.6-1.5-0.7-2.3-1c0.1,0.8,0.1,1.6,0.4,2.3c2.4,3.9,4.8,7.9,7.3,11.7c2.6,3.9,4.5,4,7.8,0.8c0.3-0.3,0.5-0.5,0.8-0.8
			c6.6-6.6,8.7-6.2,12.9,2.3C116.1,76.4,117.2,79.1,118.7,82.7z"/>
		<path d="M312.1,300.8c1.7-0.3,3.8-0.7,5.8-1.1c0-0.3,0-0.6,0-1c-0.7-0.3-1.4-0.8-2-0.8c-5.7-0.3-10.3,2.1-14.1,6.2
			c-0.4,0.5-0.3,1.5-0.5,2.2c0.7-0.2,1.6-0.1,2.2-0.5c1.7-1.2,3.3-2.5,5.9-4.6c0.1,3.1,0.2,5.1,0.3,7.1c0.1,0.8,0.5,1.6,0.8,2.4
			c0.5-0.7,1.5-1.4,1.5-2.1C312.2,306.1,312.1,303.6,312.1,300.8z"/>
	</g>
</g>
</svg>
