<?xml version="1.0" encoding="utf-8"?>
<!-- Generator: Adobe Illustrator 19.1.0, SVG Export Plug-In . SVG Version: 6.00 Build 0)  -->
<svg version="1.1" id="Layer_1" xmlns="http://www.w3.org/2000/svg" xmlns:xlink="http://www.w3.org/1999/xlink" x="0px" y="0px"
	 viewBox="-65 157 480 480" style="enable-background:new -65 157 480 480;" xml:space="preserve">
<style type="text/css">
	.st0{fill:#FFFFFF;stroke:#000000;stroke-miterlimit:10;}
</style>
<g id="cross">
	<path class="st0" d="M245.2,393l103.3-103.3c5-5,5-13.2,0-18.3l-54.7-54.7c-5-5-13.2-5-18.2,0L172.2,320L68.9,216.8
		c-5-5-13.2-5-18.2,0L-4,271.5c-5,5-5,13.2,0,18.3L99.3,393L-4,496.3c-5,5-5,13.2,0,18.2l54.7,54.7c5,5,13.2,5,18.2,0L172.2,466
		l103.3,103.3c5,5,13.2,5,18.2,0l54.7-54.7c5-5,5-13.2,0-18.2L245.2,393z"/>
</g>
</svg>
